<?xml version="1.0" encoding="iso-8859-1"?>
<!-- Generator: Adobe Illustrator 22.1.0, SVG Export Plug-In . SVG Version: 6.00 Build 0)  -->
<svg version="1.1" id="Layer_1" xmlns="http://www.w3.org/2000/svg" xmlns:xlink="http://www.w3.org/1999/xlink" x="0px" y="0px"
	 viewBox="0 0 64 64" style="enable-background:new 0 0 64 64;" xml:space="preserve">
<radialGradient id="SVGID_1_" cx="32.0001" cy="31.5" r="31.259" gradientUnits="userSpaceOnUse">
	<stop  offset="0" style="stop-color:#AFEEFF"/>
	<stop  offset="0.193" style="stop-color:#BBF1FF"/>
	<stop  offset="0.703" style="stop-color:#D7F8FF"/>
	<stop  offset="1" style="stop-color:#E1FAFF"/>
</radialGradient>
<path style="fill:url(#SVGID_1_);" d="M60,50l0.385,0c1.67,0,3.195-1.122,3.537-2.757C64.392,44.998,62.668,43,60.5,43l-7.358,0
	c-1.308,0-2.499-0.941-2.629-2.243C50.363,39.261,51.534,38,53,38l4.869,0c1.451,0,2.789-0.972,3.071-2.395
	C61.319,33.693,59.848,32,58,32h-8v-8h11c1.657,0,3-1.343,3-3v0c0-1.657-1.343-3-3-3h-0.894c-0.996,0-1.919-0.681-2.078-1.665
	C57.824,15.082,58.785,14,60,14l0.357,0c1.308,0,2.5-0.942,2.63-2.243C63.136,10.26,61.966,9,60.5,9h-16C43.672,9,43,8.328,43,7.5
	S43.672,6,44.5,6l3.857,0c1.308,0,2.5-0.942,2.63-2.243C51.136,2.26,49.966,1,48.5,1L15.643,1c-1.308,0-2.5,0.942-2.63,2.243
	C12.864,4.74,14.034,6,15.5,6l4.857,0c1.308,0,2.499,0.941,2.63,2.242C23.137,9.739,21.966,11,20.5,11L6.126,11
	c-1.457,0-2.804,0.975-3.083,2.405C2.669,15.313,4.14,17,5.984,17l2.844,0c2.089,0,3.955,1.527,4.153,3.607
	C13.209,22.993,11.339,25,9,25c-0.086,0-3.81,0-3.81,0c-2.086,0-3.959,1.514-4.169,3.59C0.78,30.972,2.665,33,5,33h9v11l-7.869,0
	c-1.451,0-2.789,0.972-3.071,2.395C2.681,48.307,4.152,50,6,50c0.603,0,2,0,3.5,0s2,1.498,2,2c0,1.105-0.895,2-2,2l-5.31,0
	c-2.086,0-3.959,1.514-4.169,3.59C-0.22,59.972,1.665,62,4,62l55.811,0c1.899,0,3.857-1.507,4.142-3.385
	c0.369-2.435-1.498-4.555-3.852-4.614c-0.808-0.02-1.606-0.396-1.921-1.14C57.564,51.401,58.618,50,60,50z"/>
<linearGradient id="SVGID_2_" gradientUnits="userSpaceOnUse" x1="32" y1="1190.0746" x2="32" y2="1138.4904" gradientTransform="matrix(1 0 0 1 0 -1134)">
	<stop  offset="0" style="stop-color:#1B1464;stop-opacity:0.9"/>
	<stop  offset="1" style="stop-color:#313499"/>
</linearGradient>
<path style="fill:url(#SVGID_2_);" d="M18,8h28c5.523,0,10,4.477,10,10v28c0,5.523-4.477,10-10,10H18c-5.523,0-10-4.477-10-10V18
	C8,12.477,12.477,8,18,8z"/>
<radialGradient id="SVGID_3_" cx="42.7455" cy="450.9726" r="24.1771" gradientTransform="matrix(1 0 0 -1 0 486)" gradientUnits="userSpaceOnUse">
	<stop  offset="0.074" style="stop-color:#2080F3"/>
	<stop  offset="1" style="stop-color:#53D390;stop-opacity:0"/>
</radialGradient>
<path style="fill:url(#SVGID_3_);" d="M28.359,47.792l-9.219-6.849c-2.034-1.51-2.034-4.604,0-6.116l9.219-6.849
	c2.17-1.612,5.112-1.612,7.281,0l9.219,6.849c2.034,1.51,2.034,4.604,0,6.116l-9.219,6.849
	C33.471,49.403,30.529,49.403,28.359,47.792z"/>
<radialGradient id="SVGID_4_" cx="-851.4892" cy="197.9908" r="17.934" gradientTransform="matrix(0.4789 -0.8779 -1.6064 -0.8762 754.7621 -526.3503)" gradientUnits="userSpaceOnUse">
	<stop  offset="0.074" style="stop-color:#50CE96;stop-opacity:0.941"/>
	<stop  offset="1" style="stop-color:#2080F2;stop-opacity:0"/>
</radialGradient>
<path style="fill:url(#SVGID_4_);" d="M28.359,47.792l-9.219-6.849c-2.034-1.51-2.034-4.604,0-6.116l9.219-6.849
	c2.17-1.612,5.112-1.612,7.281,0l9.219,6.849c2.034,1.51,2.034,4.604,0,6.116l-9.219,6.849
	C33.471,49.403,30.529,49.403,28.359,47.792z"/>
<radialGradient id="SVGID_5_" cx="13.7482" cy="458.7758" r="33.0199" gradientTransform="matrix(1 0 0 -1 0 486)" gradientUnits="userSpaceOnUse">
	<stop  offset="0.393" style="stop-color:#EF5D57"/>
	<stop  offset="1" style="stop-color:#E36001;stop-opacity:0"/>
</radialGradient>
<path style="fill:url(#SVGID_5_);" d="M28.359,36.023l-9.219-6.849c-2.034-1.51-2.034-4.604,0-6.116l9.219-6.849
	c2.17-1.612,5.112-1.612,7.281,0l9.219,6.849c2.034,1.51,2.034,4.604,0,6.116l-9.219,6.849
	C33.471,37.634,30.529,37.634,28.359,36.023z"/>
<radialGradient id="SVGID_6_" cx="-700.2963" cy="2073.0876" r="27.5118" gradientTransform="matrix(-0.0232 0.9997 0.8673 0.0202 -1781.5941 674.0471)" gradientUnits="userSpaceOnUse">
	<stop  offset="0.064" style="stop-color:#EB6AD0"/>
	<stop  offset="0.158" style="stop-color:#EB69C5;stop-opacity:0.899"/>
	<stop  offset="0.324" style="stop-color:#E968A8;stop-opacity:0.722"/>
	<stop  offset="0.54" style="stop-color:#E86679;stop-opacity:0.491"/>
	<stop  offset="0.7484" style="stop-color:#E56339;stop-opacity:0.217"/>
	<stop  offset="0.9027" style="stop-color:#E36001;stop-opacity:0"/>
</radialGradient>
<path style="fill:url(#SVGID_6_);" d="M28.359,36.023l-9.219-6.849c-2.034-1.51-2.034-4.604,0-6.116l9.219-6.849
	c2.17-1.612,5.112-1.612,7.281,0l9.219,6.849c2.034,1.51,2.034,4.604,0,6.116l-9.219,6.849
	C33.471,37.634,30.529,37.634,28.359,36.023z"/>
</svg>