<?xml version="1.0" encoding="iso-8859-1"?>
<!-- Generator: Adobe Illustrator 22.1.0, SVG Export Plug-In . SVG Version: 6.00 Build 0)  -->
<svg version="1.1" id="Layer_1" xmlns="http://www.w3.org/2000/svg" xmlns:xlink="http://www.w3.org/1999/xlink" x="0px" y="0px"
	 viewBox="0 0 48 48" style="enable-background:new 0 0 48 48;" xml:space="preserve">
<path style="fill:#00FF00;" d="M35,6H13c-3.866,0-7,3.134-7,7v22c0,3.866,3.134,7,7,7h22c3.866,0,7-3.134,7-7V13
	C42,9.134,38.866,6,35,6z"/>
<path style="fill:#FFFFFF;" d="M24,12c-7.18,0-13,4.925-13,11c0,4.074,2.624,7.622,6.513,9.523C16.931,33.773,16.087,34.949,15,36
	c2.162-0.38,4.191-1.175,5.937-2.32C21.921,33.882,22.943,34,24,34c7.18,0,13-4.925,13-11S31.18,12,24,12z"/>
</svg>